 <svg xmlns="http://www.w3.org/2000/svg" viewBox="0 0 325 367" fill="none">
        <path
            d="M281.316 247.081C284.156 246.383 286.905 245.546 289.593 244.478L289.477 244.508C293.147 242.939 296.757 241.137 299.81 238.615L299.724 238.761C305.053 234.537 309.151 228.902 311.517 222.486C311.832 221.676 312.126 220.858 312.399 220.033C312.544 219.594 312.683 219.154 312.816 218.711C312.878 218.503 312.937 218.293 312.999 218.085C313.063 217.873 312.983 218.148 312.976 218.173C313.02 218.015 313.062 217.858 313.104 217.7C313.364 216.733 314.174 215.86 315.28 216.068C316.203 216.242 317.191 217.203 316.912 218.243C316.037 221.506 314.869 224.671 313.422 227.691C307.944 239.964 295.421 247.414 282.683 250.225C281.61 250.379 280.303 250.101 280.088 248.797C279.994 247.957 280.538 247.198 281.316 247.081Z"
            fill="#300000"
        />
        <path
            d="M314.538 215.957C315.04 216.067 315.536 216.111 316.024 216.098C316.511 216.084 316.99 216.013 317.457 215.893C320.034 215.072 322.448 213.25 323.088 210.344C323.183 209.898 323.239 209.45 323.255 209.005C323.561 206.156 321.478 203.483 318.784 203.167C314.543 202.719 312.22 207.573 312.831 211.509C312.901 212.167 313.038 212.81 313.247 213.417C313.441 213.989 313.699 214.542 314.025 215.069C314.177 215.328 314.349 215.623 314.538 215.957Z"
            fill="#300000"
        />
        <path
            d="M314.783 214.248C315.151 214.323 315.525 214.383 315.901 214.388C315.581 214.384 316.172 214.364 316.169 214.365C316.35 214.349 316.53 214.326 316.708 214.295C316.756 214.287 317.306 214.13 316.922 214.257C317.053 214.214 317.184 214.168 317.313 214.119C317.573 214.022 317.829 213.914 318.08 213.796C318.206 213.737 318.331 213.675 318.454 213.611C318.513 213.58 318.915 213.345 318.553 213.564C318.791 213.42 319.024 213.268 319.248 213.104C319.435 212.967 319.616 212.823 319.791 212.671C319.896 212.58 319.997 212.486 320.098 212.39C319.792 212.682 320.21 212.258 320.261 212.197C320.443 211.986 320.612 211.764 320.767 211.532C320.819 211.454 320.869 211.376 320.918 211.296C320.705 211.643 320.94 211.237 320.967 211.182C321.096 210.924 321.207 210.657 321.3 210.385C321.319 210.328 321.429 209.868 321.346 210.247C321.393 210.031 321.438 209.816 321.47 209.597C321.511 209.318 321.528 209.041 321.548 208.76C321.557 208.618 321.571 208.477 321.576 208.334C321.562 208.776 321.563 208.314 321.557 208.236C321.534 207.96 321.485 207.689 321.425 207.418C321.522 207.857 321.417 207.422 321.389 207.341C321.343 207.212 321.293 207.086 321.239 206.961C321.184 206.836 321.121 206.717 321.062 206.594C320.871 206.199 321.274 206.868 321.012 206.517C320.851 206.3 320.689 206.09 320.521 205.879C320.25 205.54 320.788 206.091 320.458 205.811C320.373 205.739 320.291 205.664 320.205 205.594C320.119 205.524 320.031 205.457 319.941 205.394C319.868 205.342 319.795 205.293 319.72 205.246C319.912 205.354 319.924 205.362 319.757 205.27C319.514 205.155 319.275 205.053 319.025 204.958C318.624 204.807 319.366 204.998 318.94 204.94C318.829 204.925 318.719 204.899 318.608 204.884C318.496 204.87 318.384 204.865 318.273 204.854C317.839 204.81 318.639 204.81 318.215 204.855C318.027 204.876 317.498 204.842 317.357 204.98C317.428 204.961 317.5 204.943 317.571 204.924C317.495 204.947 317.419 204.972 317.344 204.999C317.232 205.039 317.122 205.084 317.014 205.133C316.942 205.166 316.873 205.203 316.801 205.236C316.436 205.401 317.106 205.014 316.78 205.248C316.587 205.386 316.394 205.518 316.213 205.674C316.127 205.749 315.822 205.93 316.178 205.691C316.057 205.772 315.948 205.939 315.856 206.051C315.726 206.208 315.604 206.373 315.489 206.541C315.419 206.644 315.354 206.75 315.288 206.855C315.525 206.473 315.306 206.838 315.267 206.913C315.032 207.37 314.855 207.847 314.698 208.337C314.834 207.912 314.704 208.327 314.685 208.407C314.645 208.576 314.611 208.747 314.58 208.918C314.528 209.218 314.49 209.52 314.468 209.824C314.461 209.91 314.456 209.997 314.453 210.083C314.449 210.17 314.446 210.257 314.445 210.343C314.446 210.096 314.448 210.071 314.45 210.269C314.47 210.569 314.488 210.865 314.525 211.164C314.575 211.563 314.637 211.956 314.718 212.35C314.728 212.394 314.812 212.675 314.733 212.416C314.803 212.644 314.877 212.869 314.964 213.091C315.309 213.977 315.631 214.409 316.131 215.291C316.578 216.078 316.008 217.255 315.205 217.549C314.239 217.903 313.425 217.466 312.947 216.623C312.901 216.542 312.855 216.461 312.808 216.38C312.659 216.118 312.915 216.562 312.776 216.323C312.668 216.138 312.557 215.955 312.45 215.77C312.196 215.334 311.962 214.894 311.779 214.424C311.443 213.558 311.24 212.646 311.12 211.728C310.953 210.444 310.976 209.118 311.283 207.856C311.909 205.287 313.476 202.651 316.125 201.776C318.998 200.826 322.191 201.954 323.82 204.524C325.567 207.282 325.292 210.894 323.535 213.584C321.638 216.489 317.723 218.359 314.295 217.666C313.412 217.487 312.651 216.666 312.83 215.713C312.995 214.838 313.836 214.057 314.783 214.248Z"
            fill="#300000"
        />
        <path
            d="M311.023 211.202C310.944 210.934 310.878 210.66 310.779 210.398C310.753 210.322 310.722 210.247 310.686 210.174C310.71 210.217 310.734 210.261 310.757 210.304C310.845 210.343 311.278 210.646 311.338 210.576C311.284 210.564 311.23 210.554 311.174 210.55C311.08 210.541 311.1 210.538 311.237 210.542C311.374 210.538 311.394 210.539 311.297 210.544C311.24 210.547 311.182 210.553 311.125 210.562C310.833 210.579 311.244 210.564 311.235 210.524C311.199 210.537 311.163 210.55 311.127 210.563C310.991 210.628 310.989 210.623 311.12 210.549C311.23 210.479 311.248 210.47 311.172 210.522C311.127 210.552 311.085 210.584 311.045 210.62C311.117 210.653 311.309 210.294 311.331 210.248C311.2 210.52 311.449 209.967 311.365 210.159C311.318 210.264 311.335 209.967 311.372 210.152C311.397 210.278 311.403 210.418 311.418 210.547C311.435 210.703 311.449 210.733 311.403 210.56C311.47 210.814 311.58 211.052 311.686 211.292C311.74 211.415 311.772 211.478 311.687 211.322C311.75 211.437 311.828 211.547 311.903 211.655C312.041 211.853 312.189 212.042 312.347 212.223C312.417 212.304 312.492 212.381 312.564 212.46C312.365 212.243 312.609 212.501 312.653 212.541C312.83 212.703 313.016 212.85 313.2 213.003C314.036 213.701 314.905 214.348 315.841 214.906C315.137 215.816 314.434 216.726 313.73 217.636C312.493 216.893 311.593 215.538 311.278 214.139C311.132 213.494 310.979 212.841 310.886 212.186C310.847 211.916 310.808 211.643 310.789 211.371C310.75 210.832 310.859 210.372 311.027 209.862C311.311 209.002 312.498 208.569 313.291 208.948C314.191 209.378 314.507 210.292 314.204 211.211C314.071 211.616 314.224 210.929 314.212 210.933C314.202 210.937 314.242 211.226 314.245 211.252C314.273 211.501 314.307 211.749 314.346 211.996C314.425 212.502 314.54 213.021 314.667 213.517C314.622 213.341 314.655 213.476 314.695 213.57C314.738 213.673 314.783 213.774 314.827 213.877C314.877 213.995 314.924 214.08 314.831 213.917C314.881 214.005 314.94 214.089 314.999 214.172C315.058 214.255 315.123 214.333 315.187 214.413C315.448 214.744 315.063 214.352 315.254 214.487C315.452 214.627 315.631 214.78 315.841 214.906C316.618 215.374 316.704 216.671 316.151 217.327C315.488 218.112 314.561 218.133 313.73 217.636C312.513 216.91 311.326 216.04 310.31 215.05C309.134 213.904 308.18 212.496 307.971 210.828C307.863 209.97 307.926 209.102 308.456 208.389C308.948 207.726 309.678 207.373 310.46 207.187C311.224 207.005 312.194 207.093 312.842 207.565C313.636 208.146 313.94 208.969 314.208 209.87C314.464 210.732 314.221 211.785 313.282 212.129C312.482 212.422 311.298 212.128 311.023 211.202Z"
            fill="#300000"
        />
        <path
            d="M254.78 39.2498C253.284 38.7507 251.612 38.5922 250.183 38.5072C246.24 38.2734 242.19 38.6695 238.245 38.8009C234.034 38.9413 229.824 39.0965 225.614 39.2646C217.194 39.6005 208.777 39.9856 200.361 40.3985C183.53 41.2248 166.705 42.1612 149.876 43.0333C133.055 43.905 116.231 44.7127 99.3964 45.2798C90.9954 45.5486 82.5937 45.7857 74.1888 45.9267C65.8402 46.0674 57.4894 46.0365 49.1421 46.2516C45.7186 46.3399 42.2897 46.327 38.8727 46.5817C35.7912 46.8113 32.1607 46.9942 29.4988 48.7412C27.9176 49.7788 27.0466 51.4099 26.9577 53.2912C26.8482 53.6943 26.7512 54.1023 26.6688 54.5126C26.3381 56.1537 26.2366 57.8298 26.4398 59.4551C27.2523 58.033 28.0654 56.8138 29.1848 56.0712C29.4869 55.8799 29.8108 55.7283 30.1596 55.6287C30.5087 55.5296 30.8825 55.4822 31.2835 55.5006C31.7713 55.4384 32.2756 55.4272 32.7928 55.4751C33.3058 55.4806 33.8011 55.497 34.297 55.5167C37.6741 55.6941 40.9765 56.0622 44.2441 56.6254C45.1474 56.7835 46.0072 56.9648 46.8003 57.1887C47.9757 57.3345 49.154 57.4617 50.3352 57.5725C62.1462 58.6809 74.2248 58.2478 86.0155 57.8862C136.04 55.8941 188.911 51.7293 239.379 49.184C240.62 49.1225 241.86 49.0626 243.108 49.0043C246.424 48.7068 250.034 49.2429 253.353 49.2262C253.768 49.2243 254.179 49.2133 254.584 49.1911C256.428 48.8903 258.053 50.5156 260.085 50.1095C260.053 50.1156 259.375 46.3602 259.329 46.1051C259.026 44.4122 258.898 42.5567 257.766 41.1652C257.009 40.2355 255.948 39.6388 254.78 39.2498Z"
            fill="#1CBFEA"
        />
        <g opacity="0.0500031">
            <path
                d="M125.265 359.238C124.674 363.897 132.238 364.622 135.147 365.198C145.466 367.245 155.959 365.591 166.263 364.251C167.429 364.012 168.597 363.788 169.767 363.596C180.527 361.835 191.061 364.937 201.796 365.289C210.714 365.582 219.687 365.428 228.578 364.2C229.992 364.005 232.444 363.802 233.34 361.944C234.242 360.075 233.307 358.642 231.995 358.009C225.65 354.946 218.753 354.94 212.131 354.618C198.643 353.961 185.328 358.301 171.885 357.218C168.893 356.977 165.935 356.325 162.973 355.711C161.986 355.507 160.998 355.307 160.009 355.128C154.361 354.107 148.593 353.933 142.88 354.286C139.965 354.467 137.053 354.74 134.159 355.156C131.772 355.499 128.562 355.55 126.537 357.06C125.777 357.628 125.37 358.415 125.265 359.238Z"
                fill="#111111"
            />
        </g>
        <path
            d="M203.81 302.628C203.705 304.148 203.609 305.678 203.418 307.208V307.112C203.418 307.304 203.418 307.591 203.377 307.817C203.201 309.614 203.006 311.403 202.792 313.188C202.36 316.807 201.856 320.409 201.301 323.994C200.2 331.125 198.902 338.191 197.573 345.241C196.82 349.234 196.057 353.224 195.313 357.222C195.069 358.536 195.62 360.111 196.581 360.425C197.534 360.736 198.552 360.014 198.814 358.606C201.471 344.334 204.379 330.123 206.173 315.558C206.436 313.426 206.674 311.287 206.886 309.143C207.097 306.998 207.282 304.842 207.439 302.663C207.538 301.289 206.534 299.941 205.624 299.984C204.556 300.034 203.914 301.134 203.81 302.628Z"
            fill="#300000"
        />
        <path
            d="M196.961 359.052C197.371 359.29 197.8 359.507 198.242 359.704C198.685 359.901 199.142 360.078 199.609 360.232C201.301 360.593 203.522 361.107 205.553 361.031C206.061 361.012 206.557 360.956 207.029 360.852C207.373 360.782 207.753 360.686 208.128 360.557C208.503 360.427 208.873 360.266 209.197 360.065C210.267 359.509 210.267 358.267 209.824 357.291C209.203 356.227 208.493 355.34 207.43 354.821C207.149 354.677 206.86 354.557 206.565 354.459C203.909 353.573 200.802 354.461 198.756 356.617C198.575 356.796 198.4 356.981 198.23 357.172C198.025 357.672 197.493 357.938 197.284 358.438C197.164 358.637 197.059 358.841 196.961 359.052Z"
            fill="#300000"
        />
        <path
            d="M196.176 360.392C197.329 361.051 198.569 361.597 199.869 361.874C201.17 362.152 202.478 362.398 203.803 362.523C205.175 362.653 206.56 362.587 207.898 362.244C209.152 361.924 210.616 361.338 211.257 360.131C212.518 357.758 210.588 354.907 208.566 353.675C206.491 352.41 203.777 352.259 201.509 353.061C200.182 353.53 198.973 354.253 197.951 355.224C197.739 355.425 197.536 355.635 197.337 355.848C197.178 356.017 197.011 356.192 196.888 356.388C196.856 356.464 196.818 356.536 196.772 356.604C196.895 356.453 196.899 356.443 196.786 356.574C196.28 357.065 195.919 357.636 195.619 358.268C195.271 359 195.391 359.978 196.176 360.392C196.867 360.757 197.927 360.618 198.3 359.835C198.399 359.625 198.509 359.424 198.622 359.221C198.662 359.149 198.879 358.855 198.645 359.127C198.699 359.065 198.756 359.006 198.812 358.947C199.016 358.73 199.21 358.517 199.382 358.27C199.384 358.267 199.572 357.936 199.472 358.111C199.393 358.193 199.414 358.17 199.533 358.043C199.602 357.969 199.672 357.895 199.744 357.823C199.908 357.653 200.073 357.485 200.247 357.326C200.315 357.263 200.384 357.202 200.454 357.142C200.443 357.151 200.792 356.869 200.617 357.004C200.442 357.14 200.801 356.874 200.79 356.882C200.884 356.817 200.978 356.754 201.074 356.694C201.284 356.561 201.5 356.437 201.721 356.323C201.84 356.262 201.963 356.205 202.084 356.148C202.03 356.173 201.806 356.254 202.084 356.148C202.292 356.069 202.501 355.995 202.715 355.931C202.926 355.868 203.141 355.814 203.358 355.77C203.444 355.752 203.531 355.738 203.617 355.721C203.798 355.693 203.79 355.692 203.595 355.72C203.682 355.71 203.769 355.702 203.857 355.694C204.247 355.663 204.641 355.663 205.031 355.697C205.1 355.702 205.513 355.782 205.136 355.706C205.221 355.723 205.307 355.735 205.393 355.753C205.649 355.805 205.902 355.873 206.15 355.956C206.111 355.943 206.587 356.12 206.402 356.043C206.217 355.967 206.681 356.181 206.644 356.162C206.844 356.263 207.033 356.376 207.22 356.5C207.463 356.661 207.265 356.536 207.219 356.496C207.318 356.583 207.416 356.668 207.51 356.761C207.572 356.822 207.633 356.885 207.693 356.949C207.725 356.984 208.021 357.334 207.914 357.199C207.774 357.022 208.04 357.377 208.034 357.368C208.086 357.444 208.138 357.52 208.187 357.596C208.264 357.714 208.331 357.837 208.409 357.953C208.582 358.208 208.44 357.992 208.413 357.917C208.449 358.017 208.61 358.357 208.565 358.471C208.556 358.408 208.547 358.346 208.539 358.283C208.546 358.357 208.549 358.432 208.549 358.507C208.548 358.544 208.547 358.581 208.546 358.617C208.531 358.793 208.536 358.764 208.559 358.53C208.542 358.52 208.529 358.73 208.502 358.737C208.527 358.68 208.551 358.622 208.576 358.564C208.544 358.629 208.507 358.691 208.467 358.751C208.605 358.484 208.547 358.603 208.492 358.69C208.537 358.658 208.581 358.627 208.625 358.595C208.557 358.643 208.486 358.686 208.412 358.724C208.329 358.774 208.246 358.822 208.16 358.868C208.141 358.878 207.704 359.073 207.993 358.956C207.745 359.057 207.489 359.137 207.231 359.208C206.976 359.279 206.716 359.338 206.456 359.388C206.458 359.388 205.934 359.462 206.22 359.43C206.109 359.442 205.998 359.452 205.888 359.459C205.3 359.502 204.71 359.489 204.123 359.446C203.829 359.424 203.536 359.393 203.244 359.356C202.943 359.318 203.606 359.416 203.101 359.335C202.944 359.31 202.786 359.286 202.63 359.259C202.029 359.158 201.431 359.036 200.836 358.91C200.288 358.794 199.775 358.655 199.251 358.458C198.764 358.274 199.376 358.517 199.098 358.396C198.925 358.321 198.755 358.242 198.586 358.16C198.3 358.02 198.019 357.869 197.743 357.711C197.038 357.308 196.013 357.522 195.619 358.268C195.229 359.006 195.422 359.961 196.176 360.392Z"
            fill="#300000"
        />
        <path
            d="M152.487 302.694C152.553 303.595 152.623 304.496 152.698 305.395C152.734 305.82 152.771 306.246 152.81 306.671C152.827 306.86 152.843 307.049 152.861 307.238C152.829 306.889 152.909 307.724 152.918 307.82C153.094 309.613 153.289 311.402 153.503 313.187C153.935 316.807 154.439 320.408 154.993 323.994C156.095 331.125 157.393 338.19 158.722 345.24C159.475 349.234 160.237 353.224 160.982 357.221C161.226 358.536 160.675 360.11 159.714 360.424C158.761 360.736 157.743 360.014 157.481 358.605C154.824 344.333 151.917 330.123 150.122 315.558C149.859 313.426 149.621 311.287 149.409 309.142C149.198 306.998 149.013 304.848 148.856 302.694C148.757 301.334 149.756 300.026 150.665 300.084C151.732 300.152 152.378 301.235 152.487 302.694Z"
            fill="#300000"
        />
        <path
            d="M159.331 359.052C158.921 359.29 158.493 359.508 158.05 359.705C157.608 359.902 157.151 360.078 156.684 360.233C154.992 360.594 152.771 361.107 150.739 361.031C150.232 361.012 149.736 360.956 149.264 360.853C148.92 360.783 148.54 360.687 148.165 360.557C147.79 360.428 147.42 360.266 147.095 360.065C146.025 359.51 146.025 358.268 146.469 357.292C147.09 356.228 147.799 355.34 148.863 354.822C149.143 354.678 149.433 354.558 149.728 354.459C152.384 353.573 155.49 354.462 157.537 356.618C157.717 356.796 157.892 356.981 158.063 357.173C158.267 357.673 158.8 357.939 159.009 358.438C159.128 358.638 159.234 358.842 159.331 359.052Z"
            fill="#300000"
        />
        <path
            d="M160.116 360.392C158.963 361.052 157.722 361.597 156.422 361.875C155.122 362.152 153.813 362.398 152.488 362.524C151.117 362.653 149.732 362.587 148.393 362.245C147.14 361.924 145.676 361.339 145.034 360.132C143.773 357.758 145.704 354.908 147.725 353.675C149.801 352.41 152.515 352.259 154.782 353.061C156.11 353.531 157.318 354.253 158.341 355.225C158.552 355.426 158.755 355.636 158.955 355.848C159.113 356.017 159.281 356.193 159.404 356.389C159.435 356.465 159.474 356.537 159.519 356.605C159.397 356.454 159.392 356.443 159.506 356.575C160.011 357.065 160.373 357.637 160.673 358.268C161.021 359.001 160.9 359.978 160.116 360.392C159.425 360.758 158.364 360.619 157.991 359.836C157.892 359.626 157.782 359.424 157.669 359.222C157.629 359.149 157.413 358.856 157.646 359.128C157.593 359.065 157.536 359.007 157.48 358.948C157.275 358.73 157.081 358.518 156.909 358.271C156.907 358.268 156.719 357.937 156.819 358.112C156.898 358.193 156.878 358.171 156.759 358.044C156.689 357.97 156.619 357.896 156.548 357.823C156.383 357.654 156.218 357.486 156.044 357.326C155.977 357.264 155.908 357.203 155.838 357.143C155.848 357.152 155.499 356.869 155.674 357.005C155.849 357.14 155.49 356.875 155.501 356.883C155.408 356.818 155.313 356.755 155.217 356.694C155.008 356.561 154.792 356.437 154.571 356.324C154.451 356.262 154.329 356.206 154.207 356.148C154.261 356.174 154.485 356.254 154.207 356.148C153.999 356.07 153.79 355.995 153.576 355.931C153.365 355.869 153.15 355.814 152.934 355.77C152.848 355.752 152.76 355.739 152.674 355.721C152.494 355.693 152.501 355.693 152.696 355.721C152.609 355.711 152.522 355.702 152.435 355.695C152.044 355.664 151.651 355.664 151.26 355.697C151.192 355.703 150.778 355.782 151.155 355.706C151.07 355.723 150.984 355.736 150.899 355.753C150.643 355.806 150.389 355.873 150.141 355.956C150.18 355.943 149.704 356.12 149.889 356.044C150.074 355.968 149.61 356.181 149.647 356.162C149.447 356.264 149.258 356.377 149.071 356.501C148.828 356.662 149.027 356.537 149.072 356.497C148.973 356.583 148.875 356.669 148.782 356.761C148.719 356.822 148.658 356.885 148.598 356.95C148.566 356.984 148.27 357.334 148.377 357.2C148.517 357.023 148.251 357.377 148.257 357.369C148.205 357.444 148.154 357.52 148.104 357.597C148.028 357.714 147.96 357.838 147.882 357.953C147.71 358.209 147.851 357.992 147.879 357.917C147.842 358.017 147.682 358.358 147.727 358.471C147.735 358.409 147.744 358.346 147.752 358.284C147.746 358.358 147.742 358.433 147.742 358.507C147.743 358.544 147.745 358.581 147.746 358.618C147.76 358.794 147.756 358.764 147.732 358.53C147.75 358.52 147.763 358.73 147.789 358.738C147.765 358.68 147.74 358.622 147.715 358.565C147.748 358.629 147.784 358.692 147.825 358.751C147.686 358.484 147.744 358.603 147.799 358.69C147.755 358.659 147.711 358.627 147.667 358.596C147.735 358.644 147.805 358.686 147.88 358.725C147.963 358.774 148.045 358.823 148.131 358.868C148.15 358.879 148.587 359.074 148.299 358.957C148.546 359.057 148.802 359.138 149.06 359.209C149.316 359.279 149.575 359.338 149.836 359.388C149.834 359.388 150.358 359.463 150.072 359.43C150.182 359.443 150.293 359.452 150.404 359.46C150.991 359.503 151.582 359.49 152.168 359.446C152.462 359.424 152.755 359.394 153.048 359.357C153.349 359.319 152.685 359.417 153.191 359.336C153.348 359.31 153.505 359.286 153.662 359.26C154.262 359.158 154.86 359.037 155.456 358.91C156.003 358.794 156.516 358.656 157.04 358.458C157.527 358.274 156.916 358.517 157.194 358.397C157.366 358.322 157.536 358.243 157.706 358.16C157.991 358.02 158.272 357.87 158.549 357.712C159.254 357.308 160.279 357.522 160.673 358.268C161.063 359.006 160.869 359.962 160.116 360.392Z"
            fill="#300000"
        />
        <path
            d="M262.738 52.3619L262.782 52.4118C266.007 56.0536 269.417 59.4925 272.851 62.9347C274.402 64.4894 275.908 66.0983 277.361 67.7448C277.859 68.3083 281.207 73.1252 281.619 73.0676C275.727 73.8804 270.038 73.6768 264.235 73.7747C263.264 73.7937 262.289 73.8111 261.31 73.8453C260.331 73.8791 259.348 73.9296 258.357 74.0137C257.325 74.0385 256.293 74.0594 255.261 74.0774C254.228 74.0955 253.196 74.1106 252.162 74.1238C250.784 74.1418 249.406 74.156 248.026 74.1695C230.623 74.6932 213.354 76.1152 196.093 78.0732C193.932 78.2754 191.769 78.4796 189.606 78.6831C178.792 79.7036 167.96 80.7302 157.076 81.6006C150.168 82.2102 143.463 82.8198 136.73 83.0282C131.009 83.7296 125.314 84.0748 119.647 84.097C91.3112 84.2081 63.6858 76.2508 37.6122 65.7534C36.6641 65.4149 36.0774 64.3313 35.671 62.8487C35.4678 62.1077 35.3097 61.2669 35.1741 60.3694C34.5645 57.6267 34.7677 54.9854 34.3613 52.3442C36.3933 52.141 38.6279 51.7349 40.6611 51.9796C41.7622 51.9735 42.8773 51.9719 43.9919 51.9677C56.2547 51.9245 68.5007 51.6006 80.7361 51.1311C85.9269 50.9317 91.1157 50.706 96.3029 50.4648C126.284 49.0469 156.252 48.6441 186.291 47.337C188.619 47.23 190.947 47.1183 193.324 46.9843C210.16 46.1876 227.003 45.502 243.834 44.5781C246.843 44.4129 250.291 43.6984 253.262 44.2535C257.574 45.0602 260.045 49.3058 262.738 52.3619Z"
            fill="#FFE8D2"
        />
        <path
            d="M267.501 57.4978C265.899 55.8329 264.32 54.1455 262.784 52.4107L262.739 52.3608C262.705 52.3218 262.671 52.2819 262.637 52.2426L45.2778 59.9803L49.7009 63.9531L267.501 57.4978Z"
            fill="#FFE8D2"
        />
        <path
            d="M272.852 62.9346C271.054 61.1316 269.263 59.3292 267.501 57.4988L49.7004 63.9542L57.175 70.6675L274.419 64.5441C273.902 64.0022 273.381 63.4644 272.852 62.9346Z"
            fill="#FFF4EB"
        />
        <path
            d="M253.262 44.2535C250.291 43.698 246.843 44.4129 243.834 44.5784C227.004 45.502 210.161 46.1873 193.324 46.984C190.947 47.1179 188.619 47.23 186.291 47.3366C156.252 48.644 126.284 49.0469 96.3033 50.4647C91.1158 50.7059 85.9273 50.9314 80.7365 51.1307C68.5011 51.6002 56.2551 51.9242 43.9919 51.9676C42.8777 51.9718 41.7625 51.9734 40.6615 51.9796C38.6283 51.7345 35.5809 51.5316 34.7681 52.7505C32.7364 56.001 38.2218 54.579 40.7626 54.6791C41.4354 54.6572 42.1577 54.6337 42.9283 54.6086C83.7542 53.2799 258.724 47.5868 258.724 47.5868C257.202 45.9873 255.475 44.6673 253.262 44.2535Z"
            fill="#FFE8D2"
        />
        <path
            d="M34.6509 55.0008C34.9723 56.8132 34.7691 58.4388 35.1713 60.3403C35.1713 60.3403 35.4241 60.3316 35.9129 60.3139C50.0831 59.8096 262.636 52.243 262.636 52.243C261.362 50.78 260.131 49.0636 258.725 47.5861C258.725 47.5861 83.7552 53.2792 42.9292 54.6079C42.1586 54.633 41.4363 54.6566 40.7636 54.6785C39.0356 54.9847 37.2071 54.5783 35.3468 54.947C34.8872 54.9812 34.6509 55.0008 34.6509 55.0008Z"
            fill="#FFF4EB"
        />
        <path
            d="M277.361 67.7438C276.403 66.6586 275.42 65.5914 274.418 64.5435L50.9907 70.8407C73.0647 78.7133 96.1106 84.1884 119.647 84.096C125.314 84.0738 131.01 83.7289 136.731 83.0275C143.464 82.8189 150.168 82.2096 157.076 81.5997C167.96 80.7292 178.792 79.7029 189.607 78.6824C191.77 78.4786 193.932 78.2744 196.094 78.0722C213.354 76.1143 230.623 74.6922 248.027 74.1686C249.406 74.155 250.785 74.1409 252.162 74.1232C253.196 74.11 254.229 74.0948 255.261 74.0765C256.293 74.0584 257.326 74.0378 258.358 74.013C259.348 73.9287 260.332 73.8784 261.311 73.8443C262.29 73.8105 263.264 73.7924 264.235 73.7741C270.039 73.6762 275.727 73.8797 281.619 73.0666C281.207 73.1242 277.859 68.3073 277.361 67.7438Z"
            fill="#FFE8D2"
        />
        <path
            d="M94.652 329.378C93.3706 323.124 88.575 317.228 90.4425 309.98C90.712 307.049 90.9529 304.135 91.1628 301.224C95.1573 245.924 87.9513 191.487 83.1885 136.906C81.8231 122.26 80.5878 109.102 79.5463 98.4342C79.3731 96.656 79.2043 94.9473 79.0427 93.3143C78.4498 86.6803 77.8406 80.1785 76.9756 73.4308C76.8754 72.5075 76.8217 72.0251 76.8217 72.0251C67.0723 71.2394 58.1331 67.5821 49.3221 63.7065C47.8556 63.0869 46.3933 62.4609 44.9316 61.8285C42.7399 60.8833 40.5501 59.925 38.3523 58.983C37.6197 58.6687 36.8883 58.3573 36.1673 58.0533C35.8401 57.8733 35.4743 57.7184 35.0863 57.5767C34.5495 57.3352 33.8677 57.0908 33.1599 56.8087C32.4534 56.5279 31.7224 56.2107 31.089 55.8236C29.6894 55.1889 29.0798 53.7668 29.283 52.3445C28.0129 53.2587 27.2765 54.427 26.8746 55.7486C26.6736 56.4094 26.3603 56.231 26.2994 56.9536C26.2424 64.6729 27.251 73.4739 27.5537 81.1118C27.6066 82.0305 27.6526 82.9431 27.6967 83.8548C27.9086 88.4079 28.1031 92.9617 28.3015 97.5152C28.5607 103.468 28.8454 109.419 29.1497 115.37C29.1784 115.912 29.2093 116.456 29.2621 117.016C30.2987 121.625 31.7211 126.095 31.3144 131.174C31.1115 131.987 31.5176 133.003 31.981 134.065C32.1481 134.521 32.3159 134.979 32.4779 135.442C32.8021 136.367 33.1026 137.31 33.3464 138.285C33.7528 139.301 33.3464 140.317 33.5344 141.423C33.5947 141.796 33.6681 142.162 33.7528 142.527C34.0068 143.618 34.362 144.685 34.7684 145.802C34.9716 146.412 34.7684 147.021 34.7684 147.631C34.7008 148.173 34.5765 148.703 34.4168 149.227C33.6185 151.844 31.9304 154.286 31.9607 157.087C31.922 157.618 31.8799 158.149 31.8367 158.682C31.7939 159.214 31.7501 159.747 31.7082 160.28C31.744 160.934 31.7832 161.588 31.8232 162.241C32.8102 178.582 33.8107 194.92 34.6883 211.261C34.7208 211.836 34.7588 212.412 34.839 213.002C36.1908 217.928 37.0033 223.007 38.1713 228.165C38.3149 228.662 38.4531 229.164 38.5835 229.67C38.8431 230.682 39.0688 231.709 39.2382 232.759C39.8478 236.619 40.051 240.276 38.6782 243.834C38.5069 244.543 38.351 245.254 38.209 245.965C37.6396 248.807 37.2864 251.647 37.0403 254.479C36.9566 255.434 36.861 256.389 36.755 257.344C36.7611 258.515 36.7956 259.699 36.8307 260.883C36.8877 262.789 36.9289 264.695 36.9602 266.601C36.9756 267.554 36.9891 268.507 36.9998 269.453C37.4097 280.504 36.8004 291.678 37.9794 302.583C38.1732 303.573 38.4231 304.55 38.7419 305.518C39.1248 306.575 39.6104 307.597 40.221 308.568C40.8325 309.54 41.5684 310.459 42.4527 311.314C43.2738 312.148 44.1362 312.975 45.0302 313.787C56.656 324.346 73.4903 332.177 88.9975 333.048C91.2498 333.175 93.3832 332.819 94.9067 331.09C94.8562 330.517 94.7682 329.946 94.652 329.378Z"
            fill="#009AC4"
        />
        <path
            d="M89.8559 239.856C70.5275 232.759 50.8198 225.241 34.7693 212.035C35.7856 226.867 36.1917 241.901 36.8013 256.732C52.4454 269.329 71.34 276.44 90.0475 283.331L89.8559 239.856Z"
            fill="#EAD32A"
        />
        <path
            d="M88.9801 189.272L88.2588 145.547C87.0673 145.133 85.5589 144.599 83.8013 143.957C85.1605 158.089 86.5833 173.361 87.8958 188.895C88.2813 189.03 88.6442 189.156 88.9801 189.272Z"
            fill="#05AEC4"
        />
        <path
            d="M87.994 188.821C88.3048 188.93 88.6004 189.032 88.8787 189.129L88.1612 145.62C86.7968 145.146 85.3711 144.637 83.9207 144.108C85.5798 161.364 86.8747 175.58 87.994 188.821ZM89.087 189.416L88.9498 189.368C88.6136 189.252 88.2507 189.126 87.8649 188.991L87.8028 188.97L87.7973 188.904C86.6731 175.603 85.3721 161.324 83.703 143.967L83.6873 143.807L83.8389 143.862C85.3647 144.42 86.8637 144.954 88.2948 145.451L88.3618 145.474L88.3631 145.545L89.087 189.416Z"
            fill="#05AEC4"
        />
        <path
            d="M83.8017 143.957C64.6343 136.253 44.3176 128.939 29.0796 114.514C29.8924 129.549 30.7049 144.786 31.7209 159.821C47.7713 173.84 68.088 181.357 87.8962 188.895C86.5837 173.361 85.1609 158.089 83.8017 143.957Z"
            fill="#EAD32A"
        />
        <path
            d="M26.2971 56.9528C26.7463 57.2146 27.1869 57.4915 27.6216 57.7791C31.1088 60.0639 34.3597 62.7051 37.997 64.7175C38.4005 64.9506 38.8076 65.1812 39.2156 65.4095C40.3043 66.0185 41.4021 66.612 42.507 67.1897C51.2227 71.4414 60.1625 75.5048 69.5747 78.8078C70.6773 79.1385 71.7963 79.4541 72.8983 79.7939C76.2126 80.9905 82.3079 82.6158 81.2926 87.0845C80.8521 88.067 80.4624 89.0492 80.1246 90.034C78.4372 94.9562 78.0472 99.9386 79.0925 105.286C79.2348 106.696 79.3814 108.159 79.5321 109.672C84.9492 167.337 92.4666 225.038 92.6695 283.144C93.2791 232.961 87.387 183.185 82.8245 133.156C81.9544 124.038 81.1548 115.564 80.4196 107.98C80.2624 106.354 80.1079 104.77 79.9562 103.231C79.2071 98.919 79.3643 94.8142 80.8482 90.6262C81.1451 89.7889 81.4951 88.9478 81.9015 88.1015C82.5108 87.2887 82.5108 86.273 82.1047 85.4599C78.4475 79.3652 83.1204 74.8955 87.9966 72.051C86.4218 71.8478 84.86 71.5937 83.3133 71.2901C70.8377 68.6952 59.8044 62.4543 48.4854 56.8323C47.89 56.5367 47.2933 56.2424 46.6959 55.9506C41.8771 53.766 37.2042 50.9215 32.1397 49.0924C31.4161 48.8557 30.7823 48.7936 30.222 48.8712C27.4223 49.2589 26.4279 53.138 26.3866 56.0952C26.3338 56.5245 26.3055 56.8359 26.2971 56.9528Z"
            fill="#1CBFEA"
        />
        <path
            d="M291.349 126.476C291.216 111.217 290.953 95.9601 290.545 80.7067C290.534 80.271 290.522 79.835 290.504 79.4041C287.917 76.3178 285.073 72.0512 280.989 71.2104C280.591 71.1695 280.192 71.1357 279.793 71.108C277.401 70.9431 275.038 70.9956 273.213 70.976C272.518 71.0121 271.823 71.0478 271.128 71.0832C249.581 72.1817 228.023 72.9896 206.446 73.3342C178.653 73.778 150.818 73.928 123.03 73.0324C107.551 72.5336 92.0673 71.8577 76.6206 70.719C76.353 70.6993 76.1035 70.9679 76.1128 71.2272C76.411 79.7071 76.7327 88.1858 77.0676 96.6641C77.4035 105.142 77.7529 113.62 78.1287 122.109C80.6943 175.596 83.4273 229.01 84.3148 282.497C84.3831 286.611 84.4401 290.726 84.4858 294.841C85.0748 307.365 84.7122 320.054 84.7122 332.743C111.904 336.731 139.457 337.457 166.937 336.086C170.904 335.9 174.869 335.66 178.831 335.37C213.276 332.845 247.476 326.465 280.945 317.791C283.059 317.243 284.602 315.424 284.804 313.251C289.036 267.718 290.974 221.996 291.339 176.204C291.416 167.974 291.452 159.677 291.453 151.376C291.455 143.076 291.421 134.776 291.349 126.476Z"
            fill="#14A7DB"
        />
        <path
            d="M283.776 71.6235C280.806 70.8326 277.555 70.8326 274.207 71.1888C273.467 71.2387 272.722 71.2909 271.977 71.3392C270.486 71.4361 268.994 71.5189 267.495 71.5446C266.658 71.6013 265.821 71.6515 264.984 71.6931C262.472 71.8171 259.959 71.8589 257.447 71.7433C256.502 71.7826 255.556 71.8245 254.611 71.8657C238.541 72.5655 222.464 73.0791 206.377 73.3354C192.551 73.556 178.708 73.8774 164.881 73.6697C151.044 73.4626 137.2 73.4813 123.369 73.0437C107.777 72.5506 92.1791 71.867 76.6207 70.7193C76.3531 70.6996 76.1032 70.9682 76.1128 71.2274C76.2265 74.4683 76.3444 77.7089 76.4642 80.9498C76.4751 81.2383 76.6893 81.438 76.9726 81.4576C81.7927 81.7948 86.6161 82.0962 91.4413 82.3519C117.228 83.7034 143.071 84.2016 168.892 84.2431C194.73 84.2844 220.618 83.9002 246.433 82.7985C257.109 82.3432 267.784 81.835 278.455 81.2663C279.979 81.1848 281.503 81.1027 283.027 81.019C284.551 80.9353 286.076 80.8503 287.6 80.7643C288.407 80.7182 289.214 80.6725 290.02 80.6261C290.152 80.5846 290.558 80.3814 290.558 80.1782C290.406 79.3657 290.091 78.6312 289.667 77.9414C287.917 75.9116 286.088 74.0835 284.258 72.1011C284.072 71.9381 283.911 71.7791 283.776 71.6235Z"
            fill="#1CBFEA"
        />
        <g opacity="0.690002">
            <path
                d="M37.1323 156.257C31.9267 147.832 32.7392 137.471 34.9741 127.922C35.3805 126.906 36.5997 126.093 37.4121 126.703C43.5071 130.156 48.3833 135.033 54.4793 137.979C56.29 138.927 58.1356 139.807 60.0165 140.631C63.7791 142.279 67.6843 143.701 71.7477 144.988C73.0686 145.394 73.9954 146.131 74.6536 147.081C75.4416 151.282 76.4348 155.949 76.9265 160.634C77.0495 161.805 77.141 162.975 77.1938 164.12C77.2334 168.759 77.6398 175.463 73.3732 177.292C71.2398 178.105 68.9035 177.749 66.592 176.881C64.2811 176.013 61.9973 174.633 59.9866 173.41C53.4626 169.368 46.9609 165.102 40.9702 160.061C39.5723 158.923 38.2133 157.678 37.1323 156.257Z"
                fill="#F9DF41"
            />
        </g>
        <g opacity="0.690002">
            <path
                d="M41.4913 251.917C39.2432 242.103 36.3991 229.303 40.2592 220.77C41.8503 221.955 43.4534 223.124 45.0748 224.262C46.6991 225.4 48.3421 226.508 50.0202 227.573C57.5286 232.961 67.0773 233.773 74.7979 239.259C78.8613 242.306 75.8136 249.011 77.1593 254.141C77.2869 255.411 77.3883 256.681 77.4392 257.95C77.6424 262.827 78.4549 273.798 72.9695 272.578C61.9983 269.938 53.0588 262.623 44.4684 255.343C43.3475 254.335 42.2796 253.218 41.4913 251.917Z"
                fill="#F9DF41"
            />
        </g>
        <path
            d="M77.8318 114.832C78.1409 119.854 78.3969 124.854 78.6301 129.846C78.8629 134.838 79.0732 139.823 79.2902 144.814C80.0415 163.165 80.597 181.52 81.1371 199.878C81.3171 206.001 81.4955 212.124 81.6729 218.29C82.3099 243.73 82.9195 269.33 84.3416 294.726C88.4049 270.142 89.2177 244.949 88.2143 219.926C87.9769 213.809 87.6427 207.778 87.2582 201.751C86.1053 183.689 84.5122 165.629 83.5178 147.66C82.924 142.748 82.2903 137.842 81.6227 132.942C80.9551 128.042 80.2434 123.146 79.4806 118.257C78.9817 117.072 78.4288 115.929 77.8318 114.832Z"
            fill="#1CBFEA"
        />
        <path
            d="M33.8864 134.449C44.0165 140.981 54.4392 147.691 66.2466 150.718C69.6292 151.586 73.0994 152.115 76.5876 152.284C78.5478 152.378 78.5429 149.331 76.5876 149.236C64.6987 148.663 53.8621 143.256 43.8802 137.168C41.0326 135.431 38.2277 133.625 35.4244 131.817C33.7715 130.751 32.2419 133.388 33.8864 134.449Z"
            fill="#EAD32A"
        />
        <path
            d="M32.6401 150.924C38.3702 154.696 44.1239 158.424 50.0766 161.841C55.6183 165.022 61.3978 167.9 67.5179 169.791C70.9958 170.866 74.5696 171.572 78.1966 171.89C80.1497 172.061 80.1385 169.013 78.1966 168.842C65.5555 167.734 54.3766 161.046 43.8212 154.52C40.5636 152.507 37.3765 150.398 34.1781 148.292C32.5354 147.211 31.0071 149.848 32.6401 150.924Z"
            fill="#EAD32A"
        />
        <path
            d="M36.8073 227.693C49.2579 236.038 62.9208 243.315 77.9315 245.485C78.7517 245.603 79.5597 245.282 79.806 244.42C80.0105 243.706 79.5555 242.664 78.742 242.546C63.9568 240.408 50.6075 233.28 38.3457 225.062C36.712 223.967 35.1846 226.606 36.8073 227.693Z"
            fill="#EAD32A"
        />
        <path
            d="M37.8573 245.255C47.8115 251.992 57.9815 258.72 69.4508 262.598C72.731 263.707 76.0913 264.55 79.5106 265.097C80.3289 265.228 81.1407 264.886 81.3848 264.033C81.5922 263.309 81.1323 262.288 80.3205 262.158C68.4612 260.262 57.8034 254.619 47.8041 248.205C44.9725 246.388 42.1815 244.509 39.3953 242.623C37.7668 241.521 36.2404 244.16 37.8573 245.255Z"
            fill="#EAD32A"
        />
        <path
            d="M112.876 61.4987C107.907 61.4867 103.032 62.5027 98.1496 62.3775C95.1058 62.3801 92.2343 62.3801 90.1167 62.3801H86.6323C86.6919 62.4213 86.7518 62.4606 86.8117 62.5021C95.4295 67.5818 97.1987 75.6579 96.3057 84.3941C96.1266 86.1444 95.8417 87.9213 95.4826 89.7121C95.2385 90.8015 94.9664 91.9093 94.6862 93.0261C94.1085 95.5575 93.4071 98.2065 92.7235 100.942C92.3931 102.218 92.0733 103.523 91.7761 104.848C91.4824 106.172 91.2116 107.515 90.9787 108.869C89.0127 119.39 89.8255 131.58 97.9522 139.504C98.5618 131.377 103.235 124.469 107.095 117.562C112.958 123.222 119.18 129.253 126.907 132.257C124.088 123.877 121.234 115.276 121.516 106.438C121.813 97.1161 125.844 87.9467 124.513 78.5725C123.645 72.4698 120.836 66.9351 114.851 63.0531C114.172 62.4709 113.515 61.954 112.876 61.4987Z"
            fill="#EAD32A"
        />
        <path
            d="M112.877 60.991C107.884 61.0058 102.95 61.9001 97.9521 61.8698C94.1793 61.8473 90.4058 61.8724 86.6329 61.8724C86.1051 61.8724 85.974 62.5451 86.3766 62.8191C88.6137 64.3414 90.7117 65.8046 92.345 68.0105C93.7497 69.9073 94.7293 72.0719 95.3041 74.3574C96.6186 79.5842 96 85.3095 94.7834 90.4896C92.1544 101.686 88.1802 113.061 90.0895 124.705C91.0247 130.405 93.4566 135.776 97.5937 139.863C97.9257 140.191 98.4255 139.93 98.4606 139.504C99.1211 131.479 103.704 124.653 107.534 117.818C107.268 117.852 107.002 117.887 106.736 117.921C112.728 123.706 118.899 129.637 126.772 132.747C127.13 132.889 127.513 132.467 127.397 132.123C125.637 126.89 123.877 121.63 122.854 116.194C121.82 110.706 121.821 105.287 122.756 99.7882C124.353 90.3911 127.262 80.6311 122.973 71.4894C120.832 66.9263 117.129 63.9494 113.133 61.0605C112.602 60.6767 112.095 61.5578 112.62 61.9374C116.305 64.6016 119.767 67.3394 121.847 71.49C123.853 75.4922 124.464 80.0366 124.218 84.4693C123.925 89.7438 122.531 94.8711 121.685 100.067C120.874 105.045 120.812 109.969 121.611 114.955C122.567 120.923 124.496 126.68 126.417 132.393L127.042 131.768C119.349 128.728 113.306 122.853 107.455 117.203C107.223 116.98 106.819 117.015 106.657 117.305C102.726 124.319 98.1222 131.274 97.4449 139.504C97.7341 139.384 98.023 139.265 98.3118 139.145C90.4125 131.341 89.5836 119.527 91.442 109.149C92.6091 102.635 94.6014 96.3158 95.973 89.8472C97.0389 84.821 97.5496 79.3955 96.3468 74.3458C95.7617 71.8887 94.7254 69.5328 93.2222 67.4979C91.481 65.1403 89.279 63.5682 86.8895 61.9419L86.6329 62.8884C90.4058 62.8884 94.1793 62.8629 97.9521 62.8861C102.95 62.9161 107.884 62.0215 112.877 62.007C113.53 62.0047 113.531 60.9891 112.877 60.991Z"
            fill="#EAD32A"
        />
        <g opacity="0.690002">
            <path
                d="M95.0985 65.7155C96.8307 70.0014 98.1539 74.4805 98.9171 79.0313C99.1693 80.561 99.3551 82.0983 99.4279 83.6647C99.5789 86.0705 99.3757 88.5086 98.9696 90.947C98.6647 92.4451 98.2902 93.9402 97.8783 95.4328C94.0935 107.607 91.4522 121.219 96.1252 133.409C97.9536 126.095 98.36 115.327 107.096 113.295C113.598 111.873 116.645 118.984 121.928 121.219C118.271 113.295 114.817 104.153 118.232 95.3353C118.629 93.8037 119.021 92.2808 119.366 90.748C119.657 89.4947 119.889 88.2239 120.054 86.9455C120.199 85.6664 120.283 84.3792 120.281 83.0921C120.16 78.1702 119.036 72.3757 115.952 68.4579C115.181 67.4783 114.288 66.6159 113.258 65.9132C111.16 64.3314 108.518 63.925 105.877 64.3314C104.556 64.5346 103.388 65.0934 102.225 65.5764C101.062 66.0607 99.9009 66.4726 98.6038 66.3576C97.4613 66.2974 96.2878 66.0862 95.0985 65.7155Z"
                fill="#F9DF41"
            />
        </g>
        <path
            d="M97.4667 65.4738C102.451 70.6833 102.812 77.8954 103.256 84.7014C103.384 86.6484 106.433 86.6626 106.304 84.7014C106.051 80.8307 105.864 76.909 104.92 73.1304C103.999 69.4518 102.252 66.068 99.6218 63.3188C98.2634 61.8987 96.1104 64.056 97.4667 65.4738Z"
            fill="#EAD32A"
        />
        <path
            d="M105.618 64.6351C110.583 69.6535 111.878 76.9916 112.354 83.7648C112.491 85.7102 115.54 85.7253 115.402 83.7648C114.867 76.1643 113.335 68.1027 107.773 62.4804C106.391 61.0841 104.237 63.2388 105.618 64.6351Z"
            fill="#EAD32A"
        />
        <path
            d="M54.2396 243.309C51.3143 243.321 48.445 243.176 45.5784 242.792L45.6978 242.794C41.7562 242.162 37.8172 241.29 34.244 239.585L34.3621 239.706C28.1673 236.902 22.8242 232.43 18.9705 226.78C18.4688 226.072 17.9848 225.349 17.5201 224.615C17.2728 224.225 17.0313 223.831 16.7949 223.434C16.6835 223.247 16.5759 223.058 16.4648 222.871C16.3518 222.681 16.4961 222.928 16.5086 222.95C16.4281 222.808 16.3489 222.665 16.2694 222.523C15.7828 221.647 14.7851 220.998 13.763 221.468C12.9096 221.86 12.1848 223.033 12.7077 223.975C14.3488 226.927 16.2491 229.714 18.3864 232.292C26.6808 242.869 40.6378 247.056 53.677 246.69C54.7545 246.58 55.9554 245.992 55.8472 244.675C55.7351 243.837 55.0228 243.233 54.2396 243.309Z"
            fill="#300000"
        />
        <path
            d="M14.4601 221.179C14.0002 221.407 13.5294 221.57 13.0531 221.675C12.5769 221.781 12.0951 221.828 11.613 221.825C8.91444 221.655 6.1302 220.472 4.80377 217.809C4.60347 217.399 4.4402 216.978 4.3159 216.55C3.32824 213.861 4.70007 210.762 7.23636 209.802C11.2414 208.338 14.6742 212.482 15.0362 216.449C15.1283 217.104 15.1511 217.762 15.0967 218.401C15.0471 219.003 14.9312 219.602 14.7431 220.193C14.6578 220.481 14.5622 220.808 14.4601 221.179Z"
            fill="#300000"
        />
        <path
            d="M13.8085 219.581C13.47 219.742 13.1212 219.892 12.7574 219.987C13.0668 219.906 12.4885 220.031 12.4917 220.03C12.3123 220.059 12.1323 220.08 11.9516 220.093C11.904 220.097 11.3327 220.079 11.7352 220.109C11.5977 220.099 11.4599 220.085 11.3227 220.07C11.0471 220.038 10.7727 219.996 10.5003 219.942C10.3637 219.916 10.2278 219.886 10.0926 219.854C10.0272 219.838 9.58024 219.708 9.98503 219.832C9.71935 219.75 9.45626 219.66 9.19864 219.555C8.98449 219.467 8.77324 219.372 8.56714 219.266C8.44348 219.204 8.32208 219.137 8.20132 219.068C8.56907 219.277 8.06027 218.967 7.99586 218.921C7.76851 218.76 7.55018 218.586 7.34408 218.399C7.27484 218.336 7.20722 218.271 7.14024 218.206C7.43135 218.491 7.10449 218.154 7.06456 218.107C6.87746 217.888 6.70453 217.657 6.54803 217.414C6.51583 217.365 6.29781 216.945 6.4701 217.292C6.37188 217.094 6.27624 216.897 6.19219 216.692C6.08463 216.432 6.0009 216.167 5.91363 215.899C5.86984 215.763 5.82218 215.63 5.78321 215.493C5.90397 215.918 5.79062 215.47 5.77806 215.393C5.73266 215.119 5.71462 214.845 5.70722 214.567C5.71945 215.016 5.71527 214.569 5.72364 214.483C5.73652 214.348 5.75391 214.213 5.77677 214.079C5.79899 213.945 5.83152 213.813 5.85857 213.68C5.94841 213.25 5.7201 213.997 5.88884 213.593C5.99253 213.344 6.09848 213.1 6.21054 212.855C6.3912 212.46 6.00284 213.125 6.25531 212.773C6.32003 212.683 6.38057 212.591 6.44756 212.502C6.51422 212.413 6.58313 212.327 6.65526 212.243C6.71323 212.176 6.77216 212.11 6.83334 212.046C6.67362 212.198 6.66364 212.209 6.80404 212.078C7.0111 211.908 7.21785 211.751 7.43811 211.598C7.79009 211.354 7.11673 211.72 7.51604 211.56C7.62006 211.518 7.72021 211.466 7.82454 211.425C7.9292 211.384 8.03676 211.352 8.14239 211.315C8.55265 211.167 7.77656 211.361 8.19842 211.302C8.38552 211.276 8.8911 211.114 9.06145 211.215C8.98738 211.214 8.91396 211.213 8.8399 211.213C8.91944 211.216 8.99898 211.222 9.07852 211.23C9.1967 211.242 9.31424 211.259 9.43114 211.28C9.50843 211.294 9.58507 211.314 9.66268 211.328C10.0572 211.399 9.31295 211.187 9.68586 211.334C9.90709 211.421 10.1264 211.503 10.3396 211.611C10.4413 211.662 10.7811 211.764 10.3776 211.618C10.5148 211.668 10.6606 211.803 10.7775 211.889C10.9421 212.01 11.1002 212.14 11.2525 212.276C11.3453 212.359 11.4341 212.445 11.523 212.531C11.2007 212.218 11.5018 212.519 11.5575 212.582C11.8969 212.969 12.1848 213.388 12.4553 213.825C12.2202 213.446 12.4472 213.817 12.4856 213.891C12.5651 214.045 12.6401 214.202 12.711 214.361C12.8346 214.639 12.9445 214.923 13.0398 215.212C13.0668 215.294 13.0929 215.377 13.1177 215.46C13.1428 215.543 13.166 215.627 13.1882 215.71C13.1277 215.471 13.1196 215.448 13.1647 215.639C13.2185 215.935 13.2739 216.227 13.3096 216.526C13.3579 216.925 13.3937 217.321 13.4101 217.723C13.412 217.769 13.3982 218.062 13.412 217.791C13.3995 218.029 13.3824 218.266 13.3521 218.502C13.2323 219.446 13.0246 219.943 12.7538 220.919C12.5117 221.792 13.3499 222.795 14.2004 222.886C15.2238 222.995 15.9071 222.373 16.166 221.439C16.1911 221.349 16.2166 221.259 16.2414 221.17C16.3225 220.879 16.1815 221.372 16.2588 221.107C16.3187 220.901 16.3815 220.696 16.4414 220.49C16.5811 220.006 16.7015 219.522 16.765 219.022C16.8812 218.1 16.8564 217.167 16.7495 216.246C16.6001 214.961 16.2562 213.68 15.6517 212.53C14.421 210.19 12.2608 208.014 9.47912 207.807C6.46108 207.583 3.63755 209.453 2.68145 212.342C1.65579 215.441 2.79899 218.878 5.15687 221.062C7.70217 223.419 11.9542 224.282 15.1114 222.778C15.9245 222.39 16.4632 221.409 16.0581 220.528C15.6862 219.719 14.6811 219.165 13.8085 219.581Z"
            fill="#300000"
        />
        <path
            d="M16.7171 215.713C16.7297 215.433 16.7265 215.151 16.759 214.873C16.7654 214.792 16.7773 214.713 16.7947 214.633C16.7822 214.681 16.7696 214.729 16.7574 214.777C16.6814 214.836 16.3349 215.235 16.2602 215.182C16.3094 215.156 16.3603 215.134 16.4122 215.116C16.5017 215.084 16.4811 215.087 16.3497 215.123C16.216 215.153 16.1967 215.159 16.292 215.141C16.3484 215.129 16.4057 215.121 16.4634 215.116C16.7503 215.061 16.3481 215.147 16.3474 215.105C16.3854 215.11 16.4231 215.114 16.4611 215.117C16.6089 215.147 16.6102 215.142 16.4653 215.102C16.341 215.062 16.3217 215.057 16.408 215.088C16.4585 215.106 16.5075 215.128 16.5548 215.153C16.4936 215.202 16.2196 214.901 16.1871 214.861C16.38 215.093 16.0045 214.618 16.133 214.783C16.2032 214.874 16.1156 214.59 16.1243 214.779C16.1301 214.907 16.1587 215.044 16.1758 215.172C16.197 215.328 16.1903 215.36 16.1929 215.182C16.1893 215.445 16.1413 215.702 16.0966 215.96C16.074 216.093 16.0573 216.162 16.103 215.989C16.0692 216.118 16.0202 216.243 15.9732 216.366C15.8882 216.59 15.79 216.81 15.6805 217.024C15.6319 217.119 15.5794 217.212 15.5285 217.307C15.6679 217.048 15.4937 217.357 15.4612 217.407C15.3289 217.607 15.1833 217.795 15.0426 217.988C14.4011 218.867 13.7152 219.706 12.9426 220.475C13.8462 221.187 14.7498 221.899 15.6535 222.611C16.673 221.589 17.2169 220.057 17.1834 218.623C17.168 217.962 17.158 217.291 17.0894 216.633C17.061 216.362 17.033 216.088 16.9857 215.819C16.892 215.287 16.6749 214.867 16.3883 214.413C15.9046 213.648 14.6478 213.517 13.9709 214.076C13.2012 214.712 13.1165 215.675 13.634 216.493C13.8614 216.853 13.5458 216.225 13.5583 216.225C13.5696 216.226 13.6002 216.517 13.6038 216.543C13.6369 216.791 13.664 217.04 13.6865 217.289C13.7329 217.799 13.7474 218.33 13.7442 218.842C13.7451 218.66 13.7458 218.8 13.7303 218.901C13.7132 219.011 13.6939 219.12 13.6765 219.23C13.6562 219.357 13.6314 219.451 13.6827 219.27C13.655 219.368 13.6186 219.464 13.5815 219.558C13.5439 219.653 13.5001 219.745 13.4582 219.838C13.2843 220.223 13.5632 219.749 13.4105 219.926C13.2518 220.11 13.1159 220.302 12.9426 220.475C12.3021 221.117 12.5343 222.397 13.2299 222.898C14.0636 223.499 14.9675 223.294 15.6535 222.611C16.6569 221.611 17.5979 220.48 18.3437 219.272C19.2061 217.875 19.7896 216.278 19.5873 214.609C19.4837 213.75 19.2122 212.924 18.5247 212.36C17.887 211.837 17.0929 211.671 16.2885 211.68C15.5031 211.689 14.5837 212.01 14.0701 212.626C13.4402 213.382 13.3458 214.254 13.3046 215.194C13.265 216.092 13.757 217.054 14.7515 217.159C15.5987 217.249 16.6749 216.677 16.7171 215.713Z"
            fill="#300000"
        />
        <path
            d="M132.158 208.284C132.092 202.504 136.243 197.238 141.81 196.009C146.092 195.088 150.218 196.726 153.031 200.121C155.735 203.625 156.607 208.207 155.14 212.41C153.559 217.057 149.548 220.544 144.745 220.897C139.621 221.244 134.779 218.033 132.996 213.153C132.426 211.654 132.126 210.009 132.158 208.284Z"
            fill="#300000"
        />
        <path
            d="M138.096 206.836C138.123 205.004 139.43 203.537 141.041 202.928C143.83 202.022 146.66 204.528 146.179 207.397C145.937 208.884 144.953 210.145 143.558 210.651C142.054 211.262 140.249 210.908 139.19 209.728C138.481 208.983 138.06 207.96 138.096 206.836Z"
            fill="white"
        />
        <path
            d="M217.359 209.953C217.339 204.471 221.062 199.308 226.207 197.848C232.421 196.185 238.847 200.206 240.537 206.586C241.83 211.399 240.451 216.606 236.764 219.876C233.297 222.816 228.591 223.617 224.576 221.758C221.196 220.135 218.589 217.078 217.721 213.304C217.465 212.236 217.339 211.113 217.359 209.953Z"
            fill="#300000"
        />
        <path
            d="M223.071 208.594C223.046 206.95 224.247 205.481 225.645 204.868C227.579 204.052 229.798 205.055 230.725 206.778C231.649 208.608 231.071 210.942 229.237 212.079C227.621 213.008 225.383 212.965 224.19 211.464C223.477 210.723 223.048 209.708 223.071 208.594Z"
            fill="white"
        />
        <path
            d="M153.989 228.183C152.031 223.982 146.837 222.459 142.576 222.893C142.552 222.896 142.531 222.903 142.509 222.907C142.487 222.907 142.465 222.906 142.442 222.909C138.812 223.363 134.018 225.285 132.884 229.17C131.723 233.147 135.779 236.076 139.129 237.004C142.632 237.974 146.49 237.539 149.777 236.03C152.79 234.645 155.62 231.68 153.989 228.183Z"
            fill="#FFA4A4"
        />
        <path
            d="M230.187 224.589C230.164 224.586 230.143 224.586 230.121 224.585C230.099 224.579 230.078 224.572 230.054 224.569C226.075 224.009 221.769 225.048 219.174 228.311C218.128 229.627 217.55 231.312 218.053 232.973C218.541 234.583 219.79 235.828 221.163 236.732C224.15 238.697 227.997 239.497 231.525 239.056C234.866 238.638 239.458 236.558 239.646 232.657C239.875 227.927 234.063 225.226 230.187 224.589Z"
            fill="#FFA4A4"
        />
        <path
            d="M187.354 227.773C184.17 224.022 179.413 226.479 177.165 229.844C179.871 232.376 183.388 234.01 187.152 233.801C191.009 233.586 194.512 231.687 197.048 228.88C194.237 226.105 190.467 224.278 187.354 227.773Z"
            fill="#FFA4A4"
        />
        <path
            d="M200.752 219.94C200.414 218.687 199.362 217.818 197.791 217.801C195.645 217.777 193.727 219.049 191.688 219.524C188.153 220.346 184.429 220.362 180.893 219.532C178.972 219.081 176.627 217.98 174.654 218.747C171.989 219.782 172.663 223.426 173.745 225.421C174.625 227.044 175.79 228.559 177.162 229.844C179.411 226.479 184.167 224.022 187.352 227.773C190.465 224.279 194.235 226.105 197.045 228.88C198.839 226.894 200.15 224.455 200.754 221.832C200.911 221.152 200.904 220.506 200.752 219.94Z"
            fill="#300000"
        />
        <path
            d="M130.068 174.122C113.898 176.818 100.855 188.617 96.3236 204.323C91.9943 219.329 95.3331 236.621 108.118 246.524C121.541 256.921 141.102 256.244 154.55 246.275C167.689 236.535 174.297 219.143 171.058 203.139C169.281 194.366 164.694 186.156 157.537 180.664C149.719 174.665 139.71 172.658 130.068 174.122C127.842 174.46 128.396 177.919 130.63 177.579C138.44 176.394 146.569 177.641 153.284 181.952C159.599 186.005 164.049 192.233 166.433 199.299C171.209 213.45 166.962 229.867 156.271 240.221C145.415 250.735 128.299 253.877 114.773 246.684C101.447 239.598 96.1343 224.399 98.5749 210.046C99.8582 202.499 103.214 195.262 108.342 189.559C114.103 183.152 122.173 178.989 130.63 177.579C132.85 177.209 132.298 173.75 130.068 174.122Z"
            fill="white"
        />
        <path
            d="M246.158 175.696C261.04 178.983 272.36 190.806 275.594 205.582C278.572 219.186 274.826 234.356 263.069 242.686C250.096 251.876 231.777 249.919 219.998 239.692C208.919 230.075 203.996 214.107 207.667 199.922C209.753 191.861 214.437 184.547 221.42 179.899C228.712 175.045 237.696 173.956 246.158 175.696C248.364 176.15 248.727 172.665 246.535 172.214C238.376 170.536 229.681 171.392 222.275 175.34C214.958 179.241 209.41 185.706 206.21 193.317C199.928 208.258 203.094 226.123 213.693 238.301C224.926 251.207 244.284 256.077 259.94 248.554C274.456 241.578 281.354 225.969 279.887 210.374C279.112 202.134 276.062 194.018 271.009 187.445C264.983 179.608 256.133 174.334 246.535 172.214C244.338 171.729 243.978 175.215 246.158 175.696Z"
            fill="white"
        />
        <path
            d="M167.279 197.567C169.021 197.338 169.799 197.182 171.107 195.929C172.346 194.743 173.602 193.569 174.944 192.498C177.833 190.192 180.906 188.855 184.568 188.332C192.689 187.172 200.608 190.966 205.398 197.486C206.735 199.307 209.459 197.105 208.126 195.291C203.135 188.497 195.031 184.305 186.545 184.645C182.667 184.8 178.854 185.76 175.538 187.803C173.954 188.78 172.494 189.926 171.104 191.162C170.426 191.765 169.765 192.386 169.109 193.012C168.84 193.268 168.397 193.844 168.035 193.997C167.683 194.144 167.095 194.06 166.717 194.11C164.484 194.403 165.042 197.861 167.279 197.567Z"
            fill="white"
        />
        <path
            d="M276.436 196.942C278.978 196.747 281.598 194.393 282.322 197.89C283.115 201.724 279.712 199.985 277.243 201.309"
            fill="white"
        />
        <path
            d="M276.716 198.671C277.849 198.55 278.878 198.092 279.978 197.835C279.988 197.833 280.488 197.7 280.437 197.729C280.812 197.518 280.498 197.95 280.372 197.597C280.428 197.754 280.692 198.985 280.681 198.979C280.714 198.998 280.659 199.118 280.769 198.87C280.87 198.642 280.89 198.845 280.78 198.807C280.663 198.767 279.922 198.921 279.665 198.947C278.58 199.058 277.515 199.222 276.527 199.711C274.512 200.707 275.93 203.911 277.958 202.908C279.151 202.318 280.524 202.508 281.782 202.139C283.522 201.628 284.298 200.138 284.157 198.386C284.01 196.538 283.071 194.513 281.025 194.265C279.34 194.062 277.798 195.039 276.154 195.214C273.914 195.452 274.477 198.909 276.716 198.671Z"
            fill="white"
        />
        <path
            d="M100.778 196.453C98.2538 196.808 94.308 194.251 94.3514 197.822C94.3991 201.736 95.8051 199.643 98.5008 200.406"
            fill="white"
        />
        <path
            d="M100.5 194.724C99.123 194.87 97.7283 194.212 96.3497 194.157C94.5061 194.083 92.9762 195.042 92.6686 196.945C92.4126 198.531 92.6158 200.792 94.1477 201.685C95.3495 202.386 96.6511 201.731 97.8587 202.035C98.7826 202.268 99.7416 202.007 100.132 201.051C100.453 200.263 100.064 199.009 99.1478 198.778C98.004 198.49 96.8904 198.407 95.7153 198.558C95.5105 198.585 95.573 198.499 95.7508 198.595C95.8052 198.624 96.333 198.959 96.2283 199.076C96.2818 199.016 96.144 197.549 96.1259 197.444C96.19 197.818 95.6123 197.437 95.9726 197.638C96.3124 197.829 97.1094 197.778 97.5007 197.854C98.6957 198.085 99.837 198.312 101.062 198.182C103.302 197.944 102.739 194.486 100.5 194.724Z"
            fill="white"
        />
        <path
            d="M24.7305 35.1374C24.7305 35.1374 24.9111 39.6528 25.1066 44.5448C25.1246 44.9895 25.1423 45.4371 25.1604 45.885C25.5545 48.5704 24.9942 51.9849 25.9587 54.459C27.7878 55.7036 29.6987 56.8423 31.6753 57.8725C33.6526 58.9023 35.6958 59.8233 37.7896 60.6336C39.8889 61.5462 42.0465 62.3564 44.245 63.0568C46.4431 63.7559 48.6816 64.3446 50.9425 64.8099C60.4066 66.9881 72.0272 66.5972 81.9502 62.9776C82.8522 62.6488 83.7403 62.293 84.6114 61.9101C92.1375 58.5201 99.7512 51.9945 102.07 44.1867C102.155 43.6135 102.204 43.0325 102.224 42.4393C102.289 35.6797 102.289 28.4286 99.5335 21.943C99.2434 21.7816 98.8985 21.6309 98.5178 21.4947C97.375 21.0864 95.9052 20.8139 94.5968 20.813C93.2417 20.6787 91.858 20.6297 90.453 20.6465C87.8829 20.6887 85.3212 20.879 82.7636 21.1511C80.8472 21.3388 78.9338 21.5932 77.0216 21.8737C75.109 22.1545 73.1978 22.4614 71.2843 22.7548C67.4844 23.7154 63.4961 23.7154 59.7657 24.0323C57.6838 24.2255 55.6119 24.4441 53.5757 24.6915C51.5392 24.9381 49.5382 25.2138 47.5979 25.5207C35.9563 27.3617 26.5048 30.3395 24.7305 35.1374Z"
            fill="#300000"
        />
        <path
            d="M114.581 13.978C97.5756 7.40091 79.0854 4.86301 61.3913 1.1845C59.6881 0.93557 57.9846 0.695335 56.2811 0.462509C50.9857 -0.260765 47.8517 -0.601471 43.579 3.09605C28.989 15.7214 13.8112 27.9537 0.859885 42.3151C-0.852333 44.2138 0.114712 46.9098 2.67934 47.3513C2.71347 47.3571 2.74825 47.3632 2.7827 47.369C24.9575 51.167 47.5287 54.0137 69.4629 59.2811C70.7575 59.5919 72.1895 59.2212 73.165 58.3125L115.356 18.9887C117.071 17.3902 116.676 14.8942 114.581 13.978Z"
            fill="#300000"
        />
        <path
            d="M114.794 14.0858L73.1649 52.8863C72.1895 53.7954 70.7574 54.1657 69.4625 53.8549C47.5286 48.5879 24.9574 45.7411 2.78263 41.9431C2.74817 41.937 2.7134 41.9312 2.67926 41.9251C2.26352 41.8539 1.8948 41.718 1.56763 41.5409C1.33255 41.7995 1.0936 42.0552 0.85981 42.3141C-0.852408 44.2128 0.11496 46.9088 2.67926 47.3503C2.7134 47.3561 2.74817 47.3622 2.78263 47.3683C24.9574 51.166 47.5286 54.0127 69.4625 59.2801C70.7574 59.5909 72.1895 59.2202 73.1649 58.3115L115.356 18.9877C117.01 17.4465 116.696 15.0748 114.794 14.0858Z"
            fill="#14A7DB"
        />
        <path
            d="M57.0019 21.5213C56.6918 21.5248 56.3788 21.5985 56.0774 21.6807C51.1156 23.0325 46.3557 25.7788 41.8344 28.1647C36.6665 30.8922 31.5985 33.8221 26.7729 37.1219C24.387 38.7536 22.0633 40.4761 19.8126 42.2894C17.666 44.0194 15.5828 45.7545 14.2435 48.2122C12.7992 50.8615 12.5132 53.8161 12.2733 56.7797C12.008 60.0492 12.0212 63.3333 12.1561 66.6083C12.4594 73.9647 13.3453 81.2908 13.126 88.6633C13.0742 90.4138 15.7931 90.4122 15.8449 88.6633C16.0259 82.5799 15.4636 76.5261 15.0814 70.4617C14.8901 67.4278 14.7481 64.3882 14.7861 61.3476C14.8247 58.2633 14.8412 54.8565 15.6333 51.8588C16.3418 49.1782 18.1806 47.1707 20.2419 45.4405C22.4465 43.5898 24.738 41.8473 27.0959 40.1959C31.622 37.0262 36.3764 34.1946 41.2348 31.5659C44.0294 30.0543 46.8951 28.677 49.7988 27.3883C52.3254 26.267 55.7753 25.5228 57.6031 23.3233C57.8092 23.075 57.9957 22.7942 58.0417 22.4754C58.1406 21.7956 57.5861 21.5145 57.0019 21.5213Z"
            fill="#F9DF41"
        />
        <path
            d="M14.5841 85.2438C9.95306 85.38 8.3104 99.2881 13.0613 98.7886C14.4228 98.6453 15.8397 95.3925 16.3173 94.3054C17.1127 92.4946 17.2447 90.689 17.313 88.7317C17.416 85.761 15.4803 83.2795 14.5841 85.2438Z"
            fill="#F9DF41"
        />
        <path
            d="M14.5837 83.8855C11.2333 84.1482 9.73204 87.8467 9.17494 90.715C8.65486 93.3936 8.31641 97.8534 10.9863 99.6088C14.8571 102.154 17.5644 95.6697 18.2242 92.8529C18.8274 90.2787 19.1401 86.9328 17.6114 84.6094C16.4949 82.912 14.4687 82.7149 13.4096 84.5588C12.5366 86.0788 14.8854 87.4497 15.7575 85.9313C15.5862 85.9403 15.4149 85.9497 15.2435 85.9587C15.3971 86.1603 15.5144 86.3805 15.5942 86.6198C15.7543 86.9959 15.8386 87.3704 15.895 87.7743C16.0254 88.7075 15.9372 89.7084 15.8409 90.6451C15.6725 92.2888 15.1386 93.7756 14.3892 95.2337C14.1007 95.7953 13.3661 97.6125 12.5691 97.399C12.0948 97.2718 11.88 96.345 11.7824 95.965C11.3142 94.1417 11.5702 92.074 12.0684 90.2851C12.3791 89.1699 13.1198 86.7193 14.5837 86.6043C16.3165 86.4684 16.3314 83.7483 14.5837 83.8855Z"
            fill="#F9DF41"
        />
        <path
            d="M12.0797 91.685C9.36049 95.1387 8.60147 99.4265 7.09825 103.456C6.48575 105.097 9.11285 105.806 9.7202 104.179C11.0321 100.663 11.6285 96.6229 14.0025 93.6078C15.0733 92.2475 13.1617 90.3102 12.0797 91.685Z"
            fill="#F9DF41"
        />
        <path
            d="M11.2751 96.0513V106.541C11.2751 108.291 13.9943 108.294 13.9943 106.541V96.0513C13.9943 94.3017 11.2751 94.2991 11.2751 96.0513Z"
            fill="#F9DF41"
        />
        <path
            d="M12.9089 92.2375C13.2679 96.5758 13.9809 100.872 14.8649 105.132C15.22 106.844 17.8417 106.119 17.4868 104.409C16.6518 100.386 15.9672 96.3356 15.6281 92.2375C15.4848 90.5059 12.7646 90.4905 12.9089 92.2375Z"
            fill="#F9DF41"
        />
        <path
            d="M14.5944 92.4613C15.2381 96.2922 17.0856 99.7626 19.3636 102.867C20.3876 104.263 22.7484 102.909 21.7112 101.495C19.5565 98.5579 17.8256 95.3634 17.2166 91.7387C16.9271 90.0165 14.3062 90.7468 14.5944 92.4613Z"
            fill="#F9DF41"
        />
        <path
            d="M15.626 91.6407C18.3613 93.6766 19.8517 97.0331 21.8135 99.7355C22.8317 101.138 25.1918 99.7822 24.1614 98.3631C21.8846 95.2272 20.1727 91.6556 16.9985 89.2928C15.5935 88.2472 14.2368 90.6064 15.626 91.6407Z"
            fill="#F9DF41"
        />
        <path
            d="M11.93 90.2416C11.8965 90.459 11.8379 90.7968 11.93 90.2416V90.2416ZM17.4654 89.4211C17.5851 88.0255 16.0723 86.7026 14.7436 86.7621C14.5378 86.7715 14.3433 86.7982 14.1601 86.8401C14.1134 86.8465 14.0676 86.8513 14.0206 86.8591C12.4005 87.1405 11.2866 89.0125 10.9511 90.4822C10.4168 92.8217 11.6592 95.169 14.2567 95.2427C15.4456 95.2765 16.5669 94.3739 16.8786 93.2465C17.1652 92.2086 17.2789 91.1185 17.398 90.0459C17.4457 89.8381 17.467 89.6285 17.4654 89.4211Z"
            fill="#EAD32A"
        />
    </svg>
